<svg viewBox="30 69 340.9 62" fill="none" xmlns="http://www.w3.org/2000/svg">
<path fill-rule="evenodd" clip-rule="evenodd" d="M162.709 105.688C166.188 105.574 169.582 106.779 172.211 109.061C173.492 110.219 174.499 111.648 175.16 113.243C175.821 114.839 176.118 116.561 176.031 118.286C176.109 119.994 175.825 121.699 175.196 123.289C174.567 124.879 173.608 126.317 172.383 127.51C169.703 129.766 166.313 131.004 162.81 131.004C159.306 131.004 155.916 129.766 153.236 127.51C152.001 126.322 151.031 124.886 150.391 123.296C149.75 121.706 149.453 119.999 149.52 118.286L149.507 117.836C149.483 116.25 149.784 114.675 150.395 113.208C151.045 111.644 152.031 110.241 153.282 109.099C155.87 106.794 159.246 105.574 162.709 105.688ZM163.17 106.698C161.96 106.641 160.75 106.823 159.61 107.233C158.471 107.644 157.423 108.275 156.527 109.091C156.337 109.265 156.152 109.448 155.971 109.639C154.405 111.537 153.623 114.415 153.624 118.271L153.64 119.129C153.731 122.694 154.51 125.4 155.977 127.247C156.833 128.26 157.916 129.057 159.138 129.572C160.359 130.088 161.685 130.309 163.008 130.216C164.251 130.269 165.49 130.027 166.622 129.511C167.755 128.994 168.749 128.218 169.524 127.244C171.122 125.276 171.922 122.343 171.923 118.442C171.924 114.542 171.136 111.629 169.559 109.705C168.744 108.809 167.759 108.082 166.663 107.566C165.567 107.051 164.38 106.755 163.17 106.698Z" fill="currentColor"></path>
<path d="M292.799 105.67C293.787 105.665 294.769 105.834 295.699 106.17C296.781 106.628 297.739 107.337 298.492 108.239C299.021 107.644 299.349 106.897 299.43 106.104H300.232V111.988H299.426C299.075 110.468 298.231 109.106 297.027 108.114C295.959 107.102 294.544 106.536 293.072 106.532C292.492 106.482 291.907 106.562 291.36 106.765C290.814 106.968 290.319 107.29 289.912 107.707C289.265 108.407 288.904 109.323 288.897 110.275C288.894 110.819 289.009 111.358 289.236 111.853C289.464 112.347 289.797 112.785 290.213 113.136C291.58 114.242 293.109 115.131 294.747 115.771C296.307 116.436 297.83 117.188 299.307 118.023C300.235 118.608 300.993 119.427 301.506 120.396C302.097 121.463 302.393 122.668 302.363 123.887C302.403 124.831 302.239 125.773 301.883 126.648C301.526 127.524 300.985 128.313 300.296 128.961C298.773 130.324 296.774 131.034 294.732 130.938C293.462 130.958 292.202 130.692 291.048 130.16C289.894 129.629 288.873 128.845 288.062 127.866C287.611 128.686 287.313 129.582 287.182 130.509L286.272 130.498V122.907H287.207C288.222 128.047 290.633 130.076 294.44 130.076C295.164 130.117 295.889 130.009 296.568 129.757C297.248 129.505 297.869 129.116 298.392 128.613C299.28 127.745 299.787 126.559 299.801 125.317C299.813 124.749 299.71 124.184 299.497 123.656C299.284 123.129 298.966 122.65 298.562 122.249C297.208 121.117 295.671 120.223 294.018 119.606C292.498 118.98 291.023 118.247 289.606 117.413C288.632 116.809 287.829 115.965 287.273 114.962C286.718 113.981 286.427 112.872 286.431 111.745C286.41 110.936 286.561 110.132 286.872 109.385C287.184 108.638 287.65 107.965 288.239 107.41C288.845 106.831 289.56 106.378 290.343 106.079C291.126 105.78 291.961 105.641 292.799 105.67Z" fill="currentColor"></path>
<path d="M240.973 100.689C239.858 100.617 238.738 100.738 237.664 101.047C237.388 101.186 237.16 101.404 237.01 101.674C236.859 101.944 236.794 102.254 236.821 102.562C237.025 103.632 237.384 104.666 237.887 105.633L246.719 126.058L253.82 109.059C254.685 107.307 255.289 105.438 255.612 103.512C255.612 101.786 254.386 100.689 251.936 100.689V99.7549L261.287 99.7822V100.717C260.338 100.785 259.445 101.192 258.771 101.863C257.943 102.665 257.303 103.642 256.9 104.723L254.846 109.546L245.847 130.935H244.157L233.726 106.83C233.527 106.395 233.205 105.645 232.788 104.577C232.433 103.414 231.805 102.352 230.957 101.48C230.008 100.9 228.904 100.625 227.794 100.689V99.7549H240.973V100.689Z" fill="currentColor"></path>
<path d="M188.887 106.911H188.406C187.603 106.853 186.796 106.956 186.033 107.214C185.835 107.334 185.665 107.496 185.535 107.688C185.405 107.881 185.318 108.098 185.28 108.327C185.116 109.603 185.056 110.89 185.099 112.175V119.856C185.037 121.752 185.16 123.65 185.466 125.522C185.77 126.719 186.507 127.76 187.535 128.443C188.868 129.363 190.463 129.826 192.081 129.76C193.473 129.779 194.853 129.494 196.124 128.925C197.197 128.481 198.134 127.76 198.838 126.837C199.41 126.058 199.781 125.151 199.92 124.194C200.079 122.812 200.146 121.42 200.119 120.029V111.723C200.157 110.75 200.076 109.776 199.88 108.822C199.809 108.547 199.684 108.289 199.512 108.062C199.34 107.836 199.125 107.646 198.879 107.504C198.121 107.112 197.281 106.905 196.428 106.9L196.474 106.121H204.55V106.911C203.7 106.917 202.87 107.174 202.165 107.649C201.689 107.983 201.348 108.478 201.204 109.041C201.049 110.031 200.987 111.033 201.02 112.034V120.15C201.05 121.695 200.971 123.241 200.783 124.774C200.581 125.865 200.102 126.886 199.392 127.738C198.533 128.778 197.421 129.577 196.162 130.059C194.618 130.66 192.97 130.95 191.313 130.915C189.419 130.974 187.535 130.601 185.807 129.822C184.461 129.231 183.332 128.236 182.576 126.976C181.87 125.512 181.54 123.895 181.615 122.271V112.17C181.657 110.916 181.599 109.66 181.442 108.415C181.416 108.179 181.339 107.952 181.216 107.749C181.093 107.546 180.927 107.374 180.73 107.241C179.964 106.962 179.146 106.849 178.332 106.911H177.715V106.121H188.887V106.911Z" fill="currentColor"></path>
<path d="M64.2607 100.69H63.8135C62.8107 100.61 61.8015 100.735 60.8486 101.058C60.5981 101.204 60.383 101.404 60.2188 101.643C60.0545 101.882 59.9459 102.154 59.8994 102.44C59.6852 104.047 59.6063 105.669 59.6631 107.289V122.618C59.632 124.202 59.6889 125.785 59.835 127.362C59.8675 127.687 59.9658 128.002 60.124 128.287C60.2824 128.572 60.4976 128.823 60.7559 129.022C61.6224 129.463 62.5962 129.65 63.5645 129.562H64.2598V130.499H50.3184V129.616H51.3867C52.2937 129.687 53.2032 129.514 54.0205 129.114C54.2974 128.937 54.5323 128.701 54.708 128.424C54.8837 128.146 54.9967 127.833 55.0381 127.507C55.217 125.879 55.2828 124.241 55.2363 122.604L55.2334 115.04H39.2236V122.604C39.1805 124.188 39.2419 125.773 39.4082 127.349C39.4403 127.674 39.5381 127.989 39.6943 128.275C39.8506 128.562 40.0627 128.815 40.3184 129.018C41.1961 129.48 42.1866 129.686 43.1758 129.612H43.9668V130.547H30V129.612H30.8027C31.7497 129.696 32.7022 129.522 33.5586 129.109C33.8207 128.935 34.044 128.708 34.2139 128.442C34.3837 128.177 34.4969 127.879 34.5459 127.568C34.7304 125.942 34.8005 124.304 34.7568 122.668V107.291C34.7978 105.712 34.7276 104.131 34.5459 102.562C34.5082 102.263 34.4056 101.977 34.2461 101.723C34.0866 101.468 33.8738 101.251 33.6221 101.087C32.6416 100.74 31.598 100.606 30.5615 100.692H30V99.7549H43.9004V100.692H43.334C42.3358 100.612 41.3318 100.737 40.3838 101.06C40.1322 101.204 39.9159 101.403 39.752 101.643C39.5881 101.882 39.4805 102.155 39.4365 102.441C39.2306 104.045 39.1594 105.663 39.2246 107.278V113.5H55.2334V107.278C55.2795 105.703 55.2147 104.127 55.0381 102.561C55.006 102.264 54.9084 101.978 54.7539 101.724C54.5994 101.469 54.3913 101.251 54.1436 101.086C53.1815 100.742 52.1569 100.607 51.1387 100.69H50.3193V99.7529H64.2607V100.69Z" fill="currentColor"></path>
<path fill-rule="evenodd" clip-rule="evenodd" d="M105.494 105.737C107.404 105.689 109.311 105.911 111.159 106.397C112.515 106.761 113.74 107.502 114.692 108.533C115.57 109.491 116.042 110.752 116.009 112.051C116.019 112.818 115.869 113.579 115.567 114.285C115.266 114.991 114.819 115.626 114.257 116.148C112.796 117.386 110.975 118.122 109.064 118.246C110.08 118.745 111.699 120.512 113.98 123.517C115.213 125.323 116.674 126.961 118.327 128.392C119.416 129.17 120.718 129.594 122.057 129.604L122.081 130.499H115.492C113.434 128.647 111.658 126.503 110.222 124.136C109.467 123.052 108.672 121.997 107.838 120.973C107.334 120.278 106.755 119.641 106.111 119.073C105.667 118.821 105.158 118.707 104.648 118.744H103.688V124.136C103.655 125.389 103.699 126.643 103.819 127.891C103.845 128.148 103.922 128.398 104.047 128.625C104.171 128.851 104.34 129.051 104.544 129.21C105.237 129.57 106.02 129.721 106.797 129.646H107.973V130.447H96.2539V129.643H97.0439C97.7911 129.707 98.5418 129.57 99.2188 129.247C99.4274 129.106 99.6046 128.923 99.7383 128.709C99.8719 128.495 99.9593 128.256 99.9951 128.007C100.142 126.695 100.196 125.374 100.154 124.055V112.182C100.191 110.924 100.138 109.665 99.9951 108.415C99.9721 108.178 99.8967 107.949 99.7734 107.746C99.6502 107.543 99.4823 107.37 99.2832 107.24C98.5165 106.961 97.6984 106.849 96.8848 106.911H96.4678V106.121L99.9609 105.896C102.279 105.791 104.124 105.738 105.494 105.737ZM105.121 106.648C104.61 106.638 104.098 106.664 103.591 106.726L103.633 117.928C104.561 117.944 105.49 117.909 106.415 117.823C107.257 117.794 108.093 117.661 108.903 117.428C109.539 117.245 110.124 116.921 110.615 116.479C111.079 116.018 111.435 115.46 111.657 114.845C111.925 114.038 112.049 113.191 112.024 112.342C112.088 110.85 111.621 109.383 110.706 108.203C109.849 107.175 107.991 106.648 105.121 106.648Z" fill="currentColor"></path>
<path fill-rule="evenodd" clip-rule="evenodd" d="M217.466 105.791C219.377 105.743 221.286 105.965 223.135 106.449C224.497 106.796 225.734 107.519 226.705 108.536C227.582 109.494 228.054 110.755 228.021 112.054C228.028 112.822 227.876 113.583 227.572 114.289C227.269 114.995 226.82 115.629 226.257 116.151C224.802 117.392 222.985 118.128 221.077 118.249C222.093 118.748 223.712 120.515 225.993 123.52C227.221 125.329 228.683 126.968 230.34 128.395C231.427 129.175 232.731 129.599 234.069 129.606L234.097 130.498H227.506C225.423 128.65 223.623 126.505 222.162 124.134C221.404 123.052 220.609 121.997 219.778 120.971C219.276 120.295 218.701 119.677 218.064 119.127C217.627 118.871 217.121 118.755 216.615 118.797H215.653V124.186C215.622 125.439 215.667 126.693 215.786 127.941C215.809 128.199 215.885 128.45 216.01 128.677C216.135 128.904 216.305 129.102 216.511 129.26C217.199 129.621 217.977 129.772 218.75 129.695H219.937V130.498H208.215V129.695H209.018C209.765 129.757 210.516 129.62 211.193 129.298C211.402 129.158 211.578 128.975 211.71 128.762C211.842 128.548 211.926 128.309 211.958 128.06C212.117 126.749 212.175 125.427 212.131 124.107V112.183C212.165 110.925 212.112 109.666 211.972 108.416C211.943 108.18 211.862 107.953 211.737 107.75C211.612 107.547 211.445 107.374 211.247 107.242C210.481 106.961 209.662 106.848 208.849 106.912H208.441V106.122L211.919 105.95C214.251 105.846 216.092 105.791 217.466 105.791ZM217.16 106.606C216.649 106.596 216.137 106.623 215.63 106.688L215.646 117.926C216.575 117.942 217.504 117.908 218.429 117.822C219.271 117.793 220.107 117.66 220.917 117.427C221.561 117.234 222.152 116.895 222.644 116.437C223.108 115.979 223.46 115.42 223.671 114.804C223.944 113.998 224.074 113.15 224.053 112.3C224.117 110.808 223.649 109.341 222.733 108.161C221.89 107.136 220.018 106.606 217.16 106.606Z" fill="currentColor"></path>
<path d="M279.448 111.993H278.646C278.461 110.766 278.011 109.593 277.327 108.557C276.805 107.874 276.059 107.398 275.22 107.212C273.999 106.981 272.755 106.888 271.514 106.934H268.127V117.198H270.77C271.61 117.244 272.453 117.142 273.258 116.896C273.47 116.816 273.664 116.693 273.825 116.534C273.986 116.376 274.112 116.185 274.195 115.975C274.389 115.186 274.464 114.372 274.418 113.562H275.224V121.836H274.418C274.488 120.91 274.372 119.979 274.077 119.098C273.983 118.885 273.845 118.693 273.673 118.536C273.5 118.38 273.297 118.261 273.076 118.188C272.346 118.027 271.598 117.959 270.851 117.988H268.208V123.762C268.208 126.661 268.404 128.361 268.773 128.873C269.143 129.385 270.09 129.639 271.778 129.639H273.601C274.674 129.668 275.744 129.512 276.764 129.177C277.725 128.749 278.543 128.053 279.121 127.174C279.987 125.882 280.588 124.43 280.888 122.904L281.66 122.907L281.146 130.498H260.978V129.692H261.479C262.297 129.793 263.125 129.622 263.837 129.207C264.194 128.884 264.436 128.453 264.524 127.98C264.651 126.711 264.697 125.434 264.663 124.159V112.182C264.695 110.954 264.642 109.725 264.505 108.505C264.486 108.261 264.413 108.023 264.293 107.81C264.173 107.596 264.008 107.411 263.81 107.268C263.079 106.968 262.286 106.849 261.499 106.921V106.118H278.932L279.448 111.993Z" fill="currentColor"></path>
<path fill-rule="evenodd" clip-rule="evenodd" d="M133.828 105.901C140.495 105.901 143.843 107.823 143.843 111.658C143.866 112.385 143.723 113.107 143.424 113.77C143.125 114.432 142.678 115.017 142.117 115.479C140.716 116.497 139.084 117.146 137.372 117.372C139.446 117.465 141.447 118.181 143.111 119.432C143.752 119.973 144.264 120.649 144.61 121.412C144.957 122.175 145.129 123.007 145.114 123.845C145.161 125.277 144.694 126.68 143.796 127.797C142.909 128.892 141.68 129.657 140.306 129.972C138.433 130.36 136.523 130.532 134.611 130.485H125.014V129.683H125.948C126.686 129.744 127.428 129.608 128.096 129.288C128.304 129.148 128.48 128.964 128.612 128.75C128.744 128.536 128.829 128.296 128.861 128.047C129.021 126.736 129.078 125.414 129.033 124.095V112.238C129.071 110.957 129.01 109.675 128.849 108.403C128.824 108.162 128.746 107.929 128.621 107.722C128.496 107.514 128.326 107.337 128.124 107.203C127.349 106.921 126.522 106.809 125.699 106.875H125.224V106.083L129.178 105.965L133.828 105.901ZM132.54 123.392C132.485 124.86 132.529 126.33 132.672 127.792C132.711 128.329 132.951 128.833 133.344 129.201C133.993 129.604 134.76 129.776 135.52 129.689C136.3 129.75 137.084 129.651 137.825 129.399C138.566 129.148 139.249 128.749 139.832 128.227C140.876 126.998 141.392 125.406 141.269 123.799C141.338 122.985 141.228 122.166 140.945 121.399C140.663 120.633 140.215 119.938 139.634 119.364C138.554 118.417 136.643 117.928 133.914 117.928H132.596L132.54 123.392ZM133.957 106.701H132.515L132.54 117.057H133.305C135.939 117.057 137.665 116.662 138.575 115.846C139.083 115.329 139.472 114.707 139.716 114.024C139.959 113.342 140.051 112.615 139.984 111.894C140.037 110.879 139.846 109.866 139.428 108.94C139.083 108.204 138.509 107.598 137.792 107.214C136.565 106.774 135.257 106.599 133.957 106.701Z" fill="currentColor"></path>
<path d="M329.231 111.999H328.492C328.344 110.777 327.959 109.596 327.358 108.521C327.009 107.921 326.465 107.457 325.817 107.206C324.891 107.006 323.943 106.921 322.995 106.954H319.044V124.169C319.014 125.426 319.058 126.684 319.176 127.936C319.199 128.193 319.275 128.444 319.399 128.671C319.524 128.898 319.695 129.096 319.9 129.254C320.584 129.613 321.358 129.765 322.126 129.689H323.312V130.492H311.058V129.689H312.377C313.124 129.751 313.874 129.615 314.552 129.295C314.756 129.153 314.931 128.97 315.064 128.76C315.198 128.549 315.287 128.313 315.328 128.067C315.481 126.756 315.539 125.436 315.501 124.116V106.964H311.876C310.812 106.918 309.747 106.999 308.702 107.203C308.02 107.426 307.449 107.903 307.106 108.533C306.532 109.607 306.16 110.777 306.01 111.985L305.274 111.999L305.393 106.121H329.11L329.231 111.999Z" fill="currentColor"></path>
<path fill-rule="evenodd" clip-rule="evenodd" d="M89.2402 125.104L90.3535 127.66C90.5738 128.175 90.9174 128.628 91.3545 128.979C91.917 129.358 92.5749 129.572 93.2529 129.597V130.402H83.6768V129.597C84.4851 129.649 85.2965 129.561 86.0742 129.334C86.2758 129.25 86.4449 129.103 86.5566 128.915C86.6683 128.727 86.7174 128.509 86.6953 128.292C86.5123 127.476 86.2317 126.683 85.8604 125.934L84.0117 121.512H74.7871L74.1025 123.027C73.4226 124.418 72.9531 125.902 72.7109 127.431C72.6924 127.747 72.7513 128.064 72.8818 128.353C73.0124 128.641 73.2112 128.895 73.4609 129.09C74.025 129.492 74.7087 129.692 75.4004 129.656V130.459H68.0654V129.656C68.9776 129.565 69.8304 129.16 70.4766 128.51C71.3022 127.356 71.951 126.085 72.4014 124.74C72.4656 124.557 72.7687 123.859 73.2705 122.646L80.373 105.751H81.1113L89.2402 125.104ZM75.1025 120.652L83.6543 120.655L79.3711 110.31L75.1025 120.652Z" fill="currentColor"></path>
<path d="M370.926 69L347.756 99.7549V69H370.926Z" fill="currentColor"></path>
<path d="M341.643 99.7451H329.321V87.4355H341.643V99.7451Z" fill="currentColor"></path>
<path d="M341.64 81.3213H329.321V69H341.64V81.3213Z" fill="currentColor"></path>
</svg>