<svg xmlns="http://www.w3.org/2000/svg" fill="none" viewBox="0 0 48 48"><path fill="currentColor" fill-rule="evenodd" d="M28.87 16a69 69 0 0 1 2.53.05l.33.04.1.03.06.02.04.05c.15.15.29.4.34.65.05.22.08.6-.22.8q-.3.2-.65.25-.36.07-.74.07c-.34.01-.71 0-1-.01v8.73h.24l.63-.02c.41 0 .87.02 1.21.14.42.15.6.55.56.91-.04.37-.3.73-.73.87h-.03c-.38.08-.86.07-1.2.07-1.37-.01-2.78.02-4.17-.02q-.23 0-.47-.1a1 1 0 0 1-.46-.34.9.9 0 0 1-.09-.85c.1-.25.3-.43.48-.58l.08-.06h.1a31 31 0 0 1 1.93-.01v-8.74c-.3.01-.7.03-1.06.02q-.41-.01-.78-.1a1.3 1.3 0 0 1-.65-.33c-.23-.26-.19-.6-.1-.83.08-.24.25-.48.45-.62l.07-.05h.09c.37-.02 1.76-.04 3.1-.04m1.48 12.35h.55zm-4.67-10.86h.03l-.08-.03q.02 0 .05.03m6.14-.96-.02-.03-.01-.02q0 .02.03.05m-11.35-.49c.79-.08 1.58.17 2.23.6a3.6 3.6 0 0 1 1.44 1.8 5 5 0 0 1 .17 1.14q.03 3.94 0 7.88c0 .36-.1.74-.37.96-.3.26-.7.22-1.08 0l-.27-.18-.1-.07-.02-.12a6 6 0 0 1-.07-.99V23.3h-3.35c0 1.4.06 3.27-.03 4.57v.11l-.08.08-.31.3q-.16.13-.38.22a.7.7 0 0 1-.5-.02q-.24-.11-.44-.35l-.01-.02a1 1 0 0 1-.14-.29l-.04-.25c-.06-1.28-.03-2.6-.03-3.86v-2.7c0-.66-.03-1.35.08-2.05a3.6 3.6 0 0 1 3.3-3m.1 1.9q-.7.16-1.02.49t-.43.83-.1 1.14l.02.63v.35h3.37c.01-.51.04-1.05 0-1.57-.06-.62-.22-1.12-.6-1.44a1.7 1.7 0 0 0-1.23-.42m3.2.38v-.03l-.02-.02zm-.73-1.03-.07-.06-.15-.13q.12.09.22.2m-.23-.2-.05-.04z" clip-rule="evenodd"/><path fill="currentColor" fill-rule="evenodd" d="M24.38 6.88c7.8 0 13.4 2.87 15.33 4.43l.41.34v12.6c0 4.01-2.67 8.22-5.78 11.34a25 25 0 0 1-5.03 3.93c-1.67.96-3.4 1.6-4.93 1.6-1.5 0-3.21-.58-4.87-1.49a23 23 0 0 1-4.97-3.76c-3.08-3.05-5.66-7.26-5.66-11.62V11.66l.4-.33c1.86-1.58 7.3-4.45 15.1-4.45m0 2.25c-6.72 0-11.44 2.3-13.25 3.6v11.52c0 3.51 2.12 7.18 5 10.03a20 20 0 0 0 4.46 3.38 8.5 8.5 0 0 0 3.8 1.22c.94 0 2.27-.44 3.8-1.31 1.51-.87 3.1-2.1 4.56-3.56 2.96-2.98 5.13-6.64 5.13-9.76v-11.5c-1.91-1.32-6.77-3.62-13.5-3.62" clip-rule="evenodd"/></svg>