<svg xmlns="http://www.w3.org/2000/svg" fill="none" viewBox="0 0 48 48"><path fill="currentColor" fill-rule="evenodd" d="M23.28 9.09A14.9 14.9 0 0 0 9.17 22.26a14.92 14.92 0 0 0 19.7 15.85c.75-.25 1.04-.39 1.21-.57a1 1 0 0 0-.31-1.6c-.31-.14-.5-.12-1.17.14a13 13 0 0 1-8.14.35A13 13 0 0 1 12 28.8a12.96 12.96 0 0 1 14.78-17.42 13 13 0 0 1 9.82 9.76c.28 1.22.34 2.03.32 4.33-.01 1.59-.01 1.66-.08 1.9-.14.5-.37.89-.75 1.26-.53.53-1.14.78-1.92.78-.8 0-1.41-.26-1.97-.84a2.6 2.6 0 0 1-.7-1.27c-.05-.18-.06-.48-.06-1.94a14 14 0 0 0-.16-2.86 8 8 0 0 0-.95-2.39 8 8 0 0 0-2.43-2.44 8 8 0 0 0-2.67-1 7.44 7.44 0 0 0-2.82 14.6c1 .2 2.19.2 3.18 0a8 8 0 0 0 2.3-.93 8 8 0 0 0 1.73-1.48l.22-.26.07.16a5 5 0 0 0 1.79 1.97 4.7 4.7 0 0 0 5.92-.78q.71-.76 1.05-1.73c.23-.7.27-1.1.27-2.86q0-2.13-.11-3.1a14.9 14.9 0 0 0-8.59-11.83 15 15 0 0 0-6.96-1.34m-.1 9.55c-.83.13-1.65.47-2.36.97a5.6 5.6 0 0 0-2.18 5.18 5.6 5.6 0 0 0 2.18 3.6 5.6 5.6 0 0 0 3.97.97 5.6 5.6 0 0 0 3.6-2.18 5.6 5.6 0 0 0 .97-3.97 5.6 5.6 0 0 0-2.18-3.6 5.6 5.6 0 0 0-4-.97" clip-rule="evenodd"/></svg>