<svg xmlns="http://www.w3.org/2000/svg" fill="none" viewBox="0 0 48 48"><path fill="currentColor" fill-rule="evenodd" d="M11.86 11.23a3.2 3.2 0 0 0-2.73 2.5c-.06.26-.06.7-.06 10.27s0 10.01.06 10.27a3.2 3.2 0 0 0 2.45 2.46c.27.05.78.05 12.42.05s12.16 0 12.42-.05a3.2 3.2 0 0 0 2.45-2.46c.06-.26.06-.7.06-10.27s0-10.01-.06-10.27a3 3 0 0 0-.87-1.59 3 3 0 0 0-1.55-.86c-.23-.06-.78-.06-12.29-.07-6.63 0-12.16.01-12.3.02m.1 2.02a1.2 1.2 0 0 0-.78.65l-.1.2v1.47l-.01 1.47 6.15 4.26c3.38 2.34 6.2 4.28 6.28 4.32.29.15.71.15 1 0 .07-.04 2.9-1.98 6.28-4.32l6.15-4.26v-1.47l-.02-1.47-.09-.2a1.2 1.2 0 0 0-.58-.58l-.2-.09H24.07c-6.89 0-12.03 0-12.1.02m-.88 13.44v7.21l.1.2c.11.25.33.46.58.58l.2.09h24.09l.2-.1c.24-.1.46-.32.57-.57l.1-.2V19.48l-.24.18c-1.28.9-10.95 7.58-11.11 7.67a3.2 3.2 0 0 1-3.14 0l-11.11-7.67-.25-.18z" clip-rule="evenodd"/></svg>