<svg width="500" height="500" viewBox="0 0 500 500" fill="none" xmlns="http://www.w3.org/2000/svg">
<g clip-path="url(#clip0_337_1458)">
<path d="M250.981 400.576C254.074 400.576 256.457 402.015 258.13 404.893C259.829 407.771 260.678 411.974 260.678 417.5C260.678 422.976 259.842 427.166 258.169 430.07C256.495 432.973 254.099 434.424 250.981 434.424C247.913 434.424 245.53 432.96 243.832 430.031C242.158 427.102 241.322 422.925 241.322 417.5C241.322 412.024 242.158 407.835 243.832 404.931C245.53 402.028 247.913 400.576 250.981 400.576Z" fill="black"/>
<path d="M299.482 400.576C302.504 400.576 304.833 402.015 306.468 404.893C308.128 407.771 308.959 411.974 308.959 417.5C308.959 422.976 308.141 427.166 306.505 430.07C304.87 432.973 302.529 434.424 299.482 434.424C296.484 434.424 294.155 432.96 292.495 430.031C290.86 427.102 290.042 422.925 290.042 417.5C290.042 412.024 290.859 407.835 292.495 404.931C294.155 402.028 296.484 400.576 299.482 400.576Z" fill="black"/>
<path d="M248.925 334.706C262.492 334.613 283.003 335.455 293.925 343.306C282.422 346.562 268.557 348.003 256.478 348.332C237.295 348.595 230.254 347.083 211.959 343.356C222.738 337.167 236.223 334.929 248.925 334.706Z" fill="black"/>
<path d="M182.478 314.207C189.694 322.969 202.004 331.551 211.96 336.826C210.05 338.304 208.626 339.399 207.455 341.531C199.636 339.833 175.432 327.385 169.61 321.928C171.989 320.48 174.383 319.047 176.786 317.63C178.248 316.593 180.856 315.16 182.478 314.207Z" fill="black"/>
<path d="M328.874 316.536C331.374 317.795 335.058 320.248 337.641 321.758C335.287 323.931 332.563 325.565 329.855 327.245C324.239 330.776 318.38 333.896 312.323 336.582C308.317 338.342 304.212 339.717 300.124 341.531C299.667 341.401 296.277 337.763 295.292 336.901C306.146 331.729 316.44 322.689 324.841 314.207L328.874 316.536Z" fill="black"/>
<path d="M210.328 303.28C217.443 317.612 219.761 319.972 229.719 331.381C225.447 332.122 222.335 332.783 218.372 334.701C208.265 330.921 194.872 319.756 187.37 311.95C190.731 309.993 197.527 307.563 201.241 306.345C203.535 305.422 207.828 304.155 210.328 303.28Z" fill="black"/>
<path d="M297.354 303.279C300.173 304.123 302.997 304.951 305.827 305.761C311.661 307.521 315.681 308.968 321.249 311.421C318.042 313.847 314.365 317.726 311.02 320.436C304.174 325.982 297.971 329.273 290.256 333.333C289.172 333.349 280.287 330.81 277.533 330.357C284.872 323.002 293.235 312.803 297.354 303.279Z" fill="black"/>
<path d="M251.577 328.358C248.55 328.345 245.427 328.314 242.444 328.881C241.124 329.077 239.563 329.143 238.213 329.236C229.536 323.715 221.654 311.248 217.423 301.853C221.324 301.078 225.24 300.367 229.161 299.721C235.117 298.626 245.437 297.855 251.516 297.815L251.577 328.358Z" fill="black"/>
<path d="M255.768 297.815C261.876 298.134 267.973 298.578 274.06 299.146C279.999 299.912 285.363 300.652 291.195 302.012C287.995 310.617 277.595 323.813 270.103 329.208C266.79 329.408 260.134 328.443 255.675 328.483C255.851 318.393 255.723 307.95 255.768 297.815Z" fill="black"/>
<path d="M366.794 158.809C405.371 155.301 405.936 195.682 401.128 224.275C399.055 236.595 385.75 244.366 374.119 245.958C354.116 246.965 339.88 236.978 338.247 216.309C336.38 192.67 337.088 161.759 366.794 158.809Z" fill="black"/>
<path d="M237.148 75.2894C240.461 75.0896 247.117 76.0534 251.576 76.014C251.4 86.1037 251.528 96.5473 251.483 106.683C245.375 106.364 239.278 105.919 233.191 105.351C227.252 104.585 221.889 103.845 216.057 102.485C219.257 93.8805 229.656 80.6847 237.148 75.2894Z" fill="black"/>
<path d="M269.039 75.2621C277.716 80.7829 285.598 93.2496 289.829 102.645C285.928 103.42 282.012 104.131 278.091 104.777C272.135 105.872 261.814 106.643 255.735 106.683L255.675 76.139C258.702 76.1515 261.825 76.1826 264.808 75.6156C266.128 75.4197 267.688 75.355 269.039 75.2621Z" fill="black"/>
<path d="M216.996 71.1635C218.079 71.1475 226.965 73.6866 229.719 74.14C222.38 81.4951 214.017 91.6934 209.898 101.218C207.079 100.373 204.255 99.546 201.425 98.7357C195.591 96.9758 191.571 95.5292 186.003 93.0756C189.21 90.6499 192.887 86.7708 196.232 84.0609C203.078 78.5146 209.281 75.2236 216.996 71.1635Z" fill="black"/>
<path d="M288.88 69.7972C298.987 73.5764 312.38 84.7413 319.882 92.5482C316.521 94.5053 309.725 96.9348 306.011 98.1527C303.717 99.0763 299.424 100.343 296.924 101.218C289.809 86.8862 287.491 84.526 277.533 73.1166C281.805 72.3753 284.917 71.7147 288.88 69.7972Z" fill="black"/>
<path d="M207.127 62.9662C207.582 63.0937 210.972 66.7326 211.959 67.5961C201.104 72.7677 190.81 81.8076 182.409 90.2894L178.377 87.9603C175.877 86.7013 172.192 84.2486 169.609 82.7387C171.963 80.5655 174.687 78.9319 177.395 77.2514C183.011 73.7211 188.87 70.601 194.927 67.9144C198.934 66.1552 203.038 64.7802 207.127 62.9662Z" fill="black"/>
<path d="M299.797 62.9662C307.616 64.6642 331.82 77.1118 337.642 82.5687C335.263 84.0173 332.869 85.4498 330.466 86.8666C329.003 87.9043 326.395 89.3367 324.773 90.2894C317.558 81.5276 305.248 72.9459 295.293 67.6713C297.202 66.1923 298.626 65.098 299.797 62.9662Z" fill="black"/>
<path d="M250.772 56.1654C269.955 55.9026 276.997 57.4134 295.293 61.141C284.513 67.3304 271.027 69.5686 258.325 69.7914C244.758 69.8849 224.247 69.0431 213.325 61.1918C224.828 57.9361 238.692 56.4944 250.772 56.1654Z" fill="black"/>
<path fill-rule="evenodd" clip-rule="evenodd" d="M237.054 0.361701C375.347 -6.99401 493.419 98.8814 500.732 236.801C508.045 374.722 401.826 492.423 263.528 499.652C125.316 506.877 7.38547 401.031 0.0776891 263.201C-7.23018 125.371 98.8508 7.71319 237.054 0.361701ZM189.001 401.53H212.783L212.822 401.716L191.267 440.511L202.371 446L225.501 401.828C225.834 401.181 226.001 400.858 226.001 400.858C226.001 400.858 226.001 397.572 226.001 391H189.001V401.53ZM250.943 389C244.326 389 239.014 391.624 235.008 396.87C231.003 402.117 229.001 408.981 229.001 417.462C229.001 425.943 230.99 432.82 234.97 438.092C238.976 443.364 244.301 446 250.943 446C257.611 446 262.948 443.364 266.954 438.092C270.985 432.795 273.001 425.918 273.001 417.462C273.001 409.007 270.985 402.155 266.954 396.909C262.948 391.636 257.611 389 250.943 389ZM299.444 389C292.977 389 287.787 391.624 283.873 396.87C279.958 402.117 278.001 408.981 278.001 417.462C278.001 425.943 279.946 432.82 283.836 438.092C287.75 443.364 292.953 446 299.444 446C305.96 446 311.176 443.364 315.09 438.092C319.03 432.795 321.001 425.918 321.001 417.462C321.001 409.007 319.03 402.155 315.09 396.909C311.176 391.637 305.96 389 299.444 389ZM166.721 389C163.675 389 161.046 389.464 158.835 390.392C156.624 391.295 154.732 392.549 153.16 394.154C151.587 395.734 150.335 397.477 149.401 399.383C148.469 401.286 148.002 402.239 148.001 402.243L157.324 407.02C157.329 407.011 157.624 406.498 158.209 405.478C158.798 404.425 159.449 403.509 160.162 402.732C160.874 401.929 161.66 401.326 162.52 400.925C163.404 400.499 164.449 400.286 165.653 400.286C167.594 400.287 169.104 400.838 170.185 401.942C171.291 403.02 171.843 404.487 171.843 406.343C171.843 408.023 171.254 409.779 170.075 411.61C168.92 413.44 167.028 415.71 164.4 418.418L148.553 434.896V444H185.001V433.467H163.846L163.81 433.316L174.792 421.955C177.936 418.82 180.234 415.885 181.683 413.152C183.133 410.393 183.858 407.597 183.858 404.763C183.858 399.998 182.285 396.186 179.14 393.327C175.995 390.442 171.856 389 166.721 389ZM325.001 403.317L331.205 411.194L338.743 405.869V444H351.001V391H342.854L325.001 403.317ZM374.61 285.523C370.51 295.257 351.468 311.955 343.163 319.177C339.424 316.29 333.015 311.984 328.65 310.181C333.627 306 343.061 291.744 345.989 285.619L339.377 285.658C338.104 290.192 327.224 304.138 323.921 308.108C318.199 304.487 305.29 300.717 298.743 299.069C301.035 295.065 302.75 290.085 304.146 285.645L298.316 285.617C297.119 289.258 295.355 294.404 293.413 297.699C282.945 294.76 267.236 293.511 256.257 293.432L256.189 285.637L250.746 285.614L250.728 292.487L250.529 293.233C249.334 293.584 238.926 293.817 236.531 294.074C228.723 294.909 220.971 295.91 213.319 297.774C211.947 293.923 209.982 289.454 208.393 285.62L202.665 285.618C204.504 290.175 206.269 294.762 207.96 299.376C201.445 300.732 189.235 304.885 183.469 308.254C176.847 300.517 172.433 294.564 167.348 285.653C165.306 285.635 163.296 285.598 161.253 285.703C165.214 293.846 171.965 303.6 178.13 310.349C173.269 313.486 168.866 315.848 164.018 319.19C155.017 311.631 137.553 296.182 132.438 285.62L125.893 285.631C129.44 291.895 134.884 298.671 139.701 304.057C158.915 325.912 184.076 341.747 212.132 349.641C229.901 354.544 243.428 355.639 261.64 355.045C301.163 353.22 339.798 334.314 366.335 305.202C371.89 299.125 376.916 292.587 381.357 285.66C379.128 285.595 376.834 285.5 374.61 285.523ZM371.679 129.909C369.304 129.917 364.638 129.865 362.486 130.133C344.271 131.428 326.07 139.36 314.055 153.308C301.48 168.11 295.31 187.293 296.905 206.635C300.355 251.452 334.375 276.678 378.058 272.995C378.44 272.965 378.819 272.931 379.197 272.894C399.486 270.493 417.217 263.812 429.867 247.167C452.376 217.548 448.318 167.45 418.065 144.351C404.648 134.106 388.35 129.803 371.679 129.909ZM222.414 131.301C220.098 131.239 217.78 131.279 215.467 131.42C178.434 133.93 150.554 169.171 183.348 198.415C198.534 211.956 218.077 211.835 236.918 214.588C246.065 215.926 260.629 217.943 261.874 229.438C262.888 242.346 250.104 246.35 240.09 247.161C218.564 248.903 205.553 240.987 196.137 222.136L166.876 222.109L166.885 270.602L196.31 270.619L196.325 254.92C207.567 266.521 222.959 273.155 239.092 273.348C250.333 273.399 258.721 272.293 268.962 267.066C283.181 259.808 293.889 246.031 293.923 229.553C294.025 219.492 290.101 209.809 283.026 202.669C269.135 188.76 248.23 185.401 229.732 183.226C219.071 181.972 202.798 180.009 202.953 166.06C202.868 153.909 219.472 153.034 228.289 153.402C237.789 153.798 247.526 158.346 253.634 165.691C256.969 169.698 259.591 174.097 262.456 178.5L289.916 178.398C289.347 164.371 289.655 147.551 289.784 133.4L261.738 133.351L261.701 148.204C250.506 136.49 238.579 131.668 222.414 131.301ZM74.2632 161.493C82.7246 161.536 91.186 161.529 99.647 161.471L99.5709 243.246L74.0728 243.203C73.9761 252.333 73.9555 261.467 74.0123 270.597L155.437 270.618C156.241 269.244 155.86 246.652 155.845 243.244C147.75 243.247 138.682 243.429 130.669 243.146L130.697 161.516C138.897 161.514 147.579 161.646 155.74 161.451C155.744 152.388 155.642 143.059 155.812 134.017L74.2671 134.005L74.2632 161.493ZM295.118 54.8568C277.35 49.954 263.823 48.8587 245.611 49.4525C206.088 51.278 167.453 70.1833 140.917 99.2963C135.361 105.373 130.335 111.91 125.893 118.837C128.123 118.901 130.417 118.997 132.641 118.974C136.74 109.239 155.782 92.5423 164.087 85.3197C167.826 88.2067 174.235 92.5129 178.6 94.3158C173.623 98.4976 164.19 112.753 161.262 118.878L167.874 118.839C169.146 114.306 180.026 100.36 183.329 96.39C189.051 100.01 201.96 103.78 208.507 105.428C206.215 109.432 204.5 114.413 203.104 118.853L208.934 118.881C210.131 115.24 211.895 110.093 213.837 106.798C224.305 109.737 240.015 110.986 250.994 111.065L251.061 118.861L256.505 118.884L256.522 112.01L256.722 111.265C257.915 110.913 268.325 110.679 270.72 110.423C278.529 109.588 286.28 108.587 293.932 106.723C295.304 110.574 297.269 115.043 298.858 118.877L304.586 118.879C302.747 114.322 300.982 109.735 299.292 105.121C305.806 103.766 318.015 99.6127 323.781 96.2435C330.404 103.981 334.818 109.933 339.903 118.844C341.946 118.861 343.955 118.899 345.998 118.794C342.037 110.651 335.285 100.897 329.12 94.1478C333.981 91.0106 338.385 88.6491 343.233 85.307C352.234 92.8661 369.697 108.315 374.813 118.877L381.358 118.867C377.811 112.603 372.367 105.827 367.549 100.441C348.335 78.5856 323.174 62.7512 295.118 54.8568Z" fill="black"/>
</g>
<defs>
<clipPath id="clip0_337_1458">
<rect width="500" height="500" fill="white"/>
</clipPath>
</defs>
</svg>
